<mxfile host="app.diagrams.net" modified="2021-04-23T11:59:31.637Z" agent="5.0 (Windows NT 10.0; Win64; x64) AppleWebKit/537.36 (KHTML, like Gecko) Chrome/89.0.4389.128 Safari/537.36" etag="BrGsPynkrBR76U0SxFRo" version="14.6.6" type="github">
  <diagram id="k15lIdcZfTVR9k88Zq7R" name="Page-1">
    <mxGraphModel dx="780" dy="1112" grid="1" gridSize="10" guides="1" tooltips="1" connect="1" arrows="1" fold="1" page="1" pageScale="1" pageWidth="850" pageHeight="1100" math="0" shadow="0">
      <root>
        <mxCell id="0" />
        <mxCell id="1" parent="0" />
        <mxCell id="DpSMH4ZrSnGTVI7KbrJz-1" value="" style="rounded=0;whiteSpace=wrap;html=1;strokeColor=#6c8ebf;fillColor=none;" vertex="1" parent="1">
          <mxGeometry x="280" y="240" width="380" height="400" as="geometry" />
        </mxCell>
        <mxCell id="DpSMH4ZrSnGTVI7KbrJz-2" value="&lt;font style=&quot;font-size: 15px&quot;&gt;User&lt;/font&gt;" style="shape=umlActor;verticalLabelPosition=bottom;verticalAlign=top;html=1;outlineConnect=0;" vertex="1" parent="1">
          <mxGeometry x="180" y="390" width="50" height="100" as="geometry" />
        </mxCell>
        <mxCell id="DpSMH4ZrSnGTVI7KbrJz-8" value="&lt;font style=&quot;font-size: 16px&quot;&gt;Software Domain&lt;/font&gt;" style="text;html=1;strokeColor=none;fillColor=none;align=center;verticalAlign=middle;whiteSpace=wrap;rounded=0;" vertex="1" parent="1">
          <mxGeometry x="375" y="250" width="190" height="40" as="geometry" />
        </mxCell>
        <mxCell id="DpSMH4ZrSnGTVI7KbrJz-9" value="&lt;font style=&quot;font-size: 15px&quot;&gt;Discord Client&lt;/font&gt;" style="shape=umlActor;verticalLabelPosition=bottom;verticalAlign=top;html=1;outlineConnect=0;" vertex="1" parent="1">
          <mxGeometry x="750" y="460" width="50" height="100" as="geometry" />
        </mxCell>
        <mxCell id="DpSMH4ZrSnGTVI7KbrJz-10" value="Send Ciphertext" style="ellipse;whiteSpace=wrap;html=1;fillColor=#dae8fc;strokeColor=#6c8ebf;" vertex="1" parent="1">
          <mxGeometry x="365" y="360" width="120" height="80" as="geometry" />
        </mxCell>
        <mxCell id="DpSMH4ZrSnGTVI7KbrJz-11" value="Receive Message" style="ellipse;whiteSpace=wrap;html=1;fillColor=#dae8fc;strokeColor=#6c8ebf;" vertex="1" parent="1">
          <mxGeometry x="365" y="520" width="120" height="80" as="geometry" />
        </mxCell>
        <mxCell id="DpSMH4ZrSnGTVI7KbrJz-12" value="Establish Unique Key" style="ellipse;whiteSpace=wrap;html=1;fillColor=#dae8fc;strokeColor=#6c8ebf;" vertex="1" parent="1">
          <mxGeometry x="530" y="300" width="120" height="80" as="geometry" />
        </mxCell>
        <mxCell id="DpSMH4ZrSnGTVI7KbrJz-13" value="" style="endArrow=none;dashed=1;html=1;entryX=0.05;entryY=0.788;entryDx=0;entryDy=0;entryPerimeter=0;" edge="1" parent="1" source="DpSMH4ZrSnGTVI7KbrJz-10" target="DpSMH4ZrSnGTVI7KbrJz-12">
          <mxGeometry width="50" height="50" relative="1" as="geometry">
            <mxPoint x="350" y="350" as="sourcePoint" />
            <mxPoint x="400" y="300" as="targetPoint" />
          </mxGeometry>
        </mxCell>
        <mxCell id="DpSMH4ZrSnGTVI7KbrJz-15" value="&amp;lt;&amp;lt;extend&amp;gt;&amp;gt;" style="text;html=1;strokeColor=none;fillColor=none;align=center;verticalAlign=middle;whiteSpace=wrap;rounded=0;" vertex="1" parent="1">
          <mxGeometry x="435" y="330" width="90" height="20" as="geometry" />
        </mxCell>
        <mxCell id="DpSMH4ZrSnGTVI7KbrJz-16" value="" style="endArrow=none;html=1;exitX=0.983;exitY=0.725;exitDx=0;exitDy=0;exitPerimeter=0;" edge="1" parent="1" source="DpSMH4ZrSnGTVI7KbrJz-10">
          <mxGeometry width="50" height="50" relative="1" as="geometry">
            <mxPoint x="410" y="580" as="sourcePoint" />
            <mxPoint x="740" y="470" as="targetPoint" />
          </mxGeometry>
        </mxCell>
        <mxCell id="DpSMH4ZrSnGTVI7KbrJz-17" value="" style="endArrow=none;html=1;exitX=1;exitY=0.325;exitDx=0;exitDy=0;exitPerimeter=0;" edge="1" parent="1" source="DpSMH4ZrSnGTVI7KbrJz-11">
          <mxGeometry width="50" height="50" relative="1" as="geometry">
            <mxPoint x="410" y="580" as="sourcePoint" />
            <mxPoint x="740" y="500" as="targetPoint" />
          </mxGeometry>
        </mxCell>
        <mxCell id="DpSMH4ZrSnGTVI7KbrJz-18" value="" style="endArrow=none;html=1;exitX=0.05;exitY=0.8;exitDx=0;exitDy=0;exitPerimeter=0;" edge="1" parent="1" source="DpSMH4ZrSnGTVI7KbrJz-10">
          <mxGeometry width="50" height="50" relative="1" as="geometry">
            <mxPoint x="410" y="580" as="sourcePoint" />
            <mxPoint x="240" y="440" as="targetPoint" />
          </mxGeometry>
        </mxCell>
        <mxCell id="DpSMH4ZrSnGTVI7KbrJz-19" value="" style="endArrow=none;html=1;" edge="1" parent="1" target="DpSMH4ZrSnGTVI7KbrJz-11">
          <mxGeometry width="50" height="50" relative="1" as="geometry">
            <mxPoint x="240" y="470" as="sourcePoint" />
            <mxPoint x="460" y="530" as="targetPoint" />
          </mxGeometry>
        </mxCell>
        <mxCell id="DpSMH4ZrSnGTVI7KbrJz-20" value="type message" style="text;html=1;strokeColor=none;fillColor=none;align=center;verticalAlign=middle;whiteSpace=wrap;rounded=0;" vertex="1" parent="1">
          <mxGeometry x="290" y="400" width="40" height="20" as="geometry" />
        </mxCell>
        <mxCell id="DpSMH4ZrSnGTVI7KbrJz-21" value="read message" style="text;html=1;strokeColor=none;fillColor=none;align=center;verticalAlign=middle;whiteSpace=wrap;rounded=0;" vertex="1" parent="1">
          <mxGeometry x="300" y="470" width="40" height="20" as="geometry" />
        </mxCell>
        <mxCell id="DpSMH4ZrSnGTVI7KbrJz-22" value="send message to other user" style="text;html=1;strokeColor=none;fillColor=none;align=center;verticalAlign=middle;whiteSpace=wrap;rounded=0;" vertex="1" parent="1">
          <mxGeometry x="670" y="420" width="70" height="20" as="geometry" />
        </mxCell>
        <mxCell id="DpSMH4ZrSnGTVI7KbrJz-23" value="other user sends message" style="text;html=1;strokeColor=none;fillColor=none;align=center;verticalAlign=middle;whiteSpace=wrap;rounded=0;" vertex="1" parent="1">
          <mxGeometry x="660" y="530" width="70" height="20" as="geometry" />
        </mxCell>
      </root>
    </mxGraphModel>
  </diagram>
</mxfile>
